<?xml version="1.0" standalone="no"?>
<!DOCTYPE svg PUBLIC "-//W3C//DTD SVG 20010904//EN"
 "http://www.w3.org/TR/2001/REC-SVG-20010904/DTD/svg10.dtd">
<svg version="1.0" xmlns="http://www.w3.org/2000/svg"
 width="960.000000pt" height="960.000000pt" viewBox="0 0 960.000000 960.000000"
 preserveAspectRatio="xMidYMid meet">
<metadata>
Created by potrace 1.13, written by Peter Selinger 2001-2015
</metadata>
<g transform="translate(0.000000,960.000000) scale(0.100000,-0.100000)"
fill="#000000" stroke="none">
<path d="M4615 6814 c-76 -12 -243 -58 -322 -90 -440 -177 -750 -571 -829
-1054 -21 -124 -13 -358 15 -480 62 -270 174 -473 366 -666 199 -200 413 -317
688 -376 145 -31 389 -31 534 0 275 59 489 176 688 376 252 253 378 543 391
901 9 239 -30 424 -135 640 -178 365 -487 614 -893 721 -91 23 -125 27 -288
29 -102 2 -198 1 -215 -1z m476 -167 c570 -149 947 -659 915 -1237 -30 -560
-431 -1018 -985 -1127 -115 -22 -327 -22 -442 0 -485 95 -860 463 -965 947
-26 118 -26 362 -1 480 52 243 160 443 332 616 174 174 398 293 641 339 126
23 382 14 505 -18z"/>
<path d="M4608 6460 c-158 -27 -302 -111 -437 -256 -196 -209 -284 -485 -253
-787 28 -271 135 -498 322 -687 207 -209 417 -287 636 -235 166 39 274 114
530 370 178 178 205 208 238 275 68 138 55 247 -39 343 -54 54 -100 72 -163
63 -75 -10 -128 -50 -337 -256 -113 -112 -218 -206 -242 -219 -54 -27 -118
-27 -162 0 l-33 20 214 217 c222 226 297 321 338 428 61 163 37 345 -64 481
-138 187 -342 277 -548 243z m78 -536 c44 -21 58 -47 51 -95 -7 -52 -48 -107
-180 -238 l-115 -114 -12 59 c-16 76 -8 177 17 235 36 82 131 167 186 169 11
0 34 -7 53 -16z"/>
<path d="M2067 3845 c-277 -76 -436 -383 -357 -691 36 -140 117 -242 243 -304
97 -47 177 -60 388 -60 208 0 273 12 308 57 38 48 18 130 -36 151 -16 6 -120
12 -238 15 -194 3 -214 5 -263 26 -62 28 -123 93 -140 149 -23 76 -48 70 311
74 353 3 353 3 382 64 21 45 19 140 -5 218 -41 132 -166 252 -306 296 -77 23
-211 26 -287 5z m232 -231 c38 -19 62 -40 82 -72 53 -84 59 -82 -186 -82 -142
0 -215 4 -215 10 0 21 39 85 67 112 67 63 164 76 252 32z"/>
<path d="M4281 3845 c-175 -49 -311 -197 -356 -386 -19 -82 -19 -216 0 -298
44 -185 182 -314 381 -356 46 -10 130 -15 255 -15 248 0 310 18 325 97 8 43
-11 90 -45 107 -18 10 -90 15 -246 18 -245 5 -263 9 -335 75 -47 41 -79 102
-80 146 l0 27 288 0 c158 1 307 5 331 9 25 5 54 20 70 35 24 25 26 32 26 114
-1 66 -6 101 -24 144 -45 116 -154 224 -271 269 -73 29 -241 36 -319 14z m224
-224 c63 -29 125 -103 125 -151 0 -6 -74 -10 -215 -10 -245 0 -241 -2 -184 83
57 86 180 121 274 78z"/>
<path d="M7275 3836 c-211 -68 -336 -243 -351 -491 -18 -280 131 -485 394
-540 96 -21 420 -20 490 0 69 21 96 55 89 114 -3 26 -13 52 -26 65 -20 20 -34
21 -249 27 -207 5 -231 7 -277 28 -83 37 -134 100 -150 183 l-7 37 324 3 c289
3 326 5 349 21 36 24 49 58 49 131 0 189 -136 367 -326 426 -92 28 -216 27
-309 -4z m245 -217 c56 -25 77 -44 101 -91 36 -71 43 -68 -196 -68 -142 0
-215 4 -215 10 0 21 39 85 67 112 62 59 161 74 243 37z"/>
<path d="M5108 3811 l-33 -29 0 -462 0 -462 37 -34 c42 -38 84 -44 143 -20 66
28 69 45 75 381 5 287 6 302 28 342 28 54 58 69 157 78 105 9 142 25 160 69
42 101 -21 166 -159 166 -85 0 -127 -19 -172 -78 -27 -36 -34 -41 -34 -24 0
62 -48 102 -124 102 -36 0 -52 -6 -78 -29z"/>
<path d="M2844 3787 c-38 -34 -39 -38 -38 -99 4 -256 183 -665 373 -852 47
-47 54 -50 111 -54 81 -6 110 8 173 87 157 193 317 598 317 802 0 71 -19 113
-60 134 -58 30 -145 11 -171 -37 -6 -12 -29 -100 -50 -197 -41 -191 -70 -294
-101 -356 -29 -59 -92 -165 -98 -165 -3 0 -26 33 -52 73 -83 127 -119 228
-173 477 -42 195 -52 211 -138 218 -52 4 -57 2 -93 -31z"/>
<path d="M5881 3807 c-70 -35 -79 -102 -41 -282 51 -235 170 -480 318 -651 71
-84 100 -98 184 -92 59 4 64 7 106 53 116 128 229 352 301 593 56 190 59 308
8 359 -45 45 -160 39 -192 -10 -7 -12 -30 -101 -50 -197 -47 -222 -84 -334
-141 -435 -26 -44 -50 -84 -54 -88 -9 -11 -75 84 -118 169 -44 88 -68 163
-108 346 -19 90 -40 176 -46 192 -19 48 -111 72 -167 43z"/>
</g>
</svg>
