<?xml version="1.0" encoding="UTF-8" standalone="no"?>
<svg
   xmlns:dc="http://purl.org/dc/elements/1.1/"
   xmlns:cc="http://creativecommons.org/ns#"
   xmlns:rdf="http://www.w3.org/1999/02/22-rdf-syntax-ns#"
   xmlns:svg="http://www.w3.org/2000/svg"
   xmlns="http://www.w3.org/2000/svg"
   xmlns:sodipodi="http://sodipodi.sourceforge.net/DTD/sodipodi-0.dtd"
   xmlns:inkscape="http://www.inkscape.org/namespaces/inkscape"
   version="1.0"
   width="94.712311pt"
   height="20.626127pt"
   viewBox="0 0 94.712309 20.626126"
   preserveAspectRatio="xMidYMid meet"
   id="svg3400"
   inkscape:version="0.91 r13725"
   sodipodi:docname="everve-logo-worde.svg">
  <defs
     id="defs3424" />
  <sodipodi:namedview
     pagecolor="#ffffff"
     bordercolor="#666666"
     borderopacity="1"
     objecttolerance="10"
     gridtolerance="10"
     guidetolerance="10"
     inkscape:pageopacity="0"
     inkscape:pageshadow="2"
     inkscape:window-width="965"
     inkscape:window-height="729"
     id="namedview3422"
     showgrid="false"
     fit-margin-top="0"
     fit-margin-left="0"
     fit-margin-right="0"
     fit-margin-bottom="0"
     inkscape:zoom="4.8020271"
     inkscape:cx="41.449194"
     inkscape:cy="18.406498"
     inkscape:window-x="397"
     inkscape:window-y="18"
     inkscape:window-maximized="0"
     inkscape:current-layer="g3404" />
  <metadata
     id="metadata3402">
Created by potrace 1.13, written by Peter Selinger 2001-2015
<rdf:RDF>
  <cc:Work
     rdf:about="">
    <dc:format>image/svg+xml</dc:format>
    <dc:type
       rdf:resource="http://purl.org/dc/dcmitype/StillImage" />
    <dc:title />
  </cc:Work>
</rdf:RDF>
</metadata>
  <g
     transform="matrix(0.03164246,0,0,-0.02973239,-10.75624,137.77126)"
     id="g3404"
     style="fill:#000000;stroke:none">
    <path
       d="m 1939.4377,4583.2537 -19.1417,-17.874 0,-284.6678 0,-284.6635 21.4614,-20.9524 c 24.3705,-23.4081 48.7436,-27.1091 82.9748,-12.3129 38.298,17.2488 40.0348,27.7237 43.5154,234.7504 2.9031,176.8365 3.4838,186.0836 16.2463,210.7257 16.247,33.2706 33.6571,42.5147 91.0937,48.0622 60.9262,5.5403 82.391,15.3998 92.8393,42.5125 24.3666,62.2337 -12.1874,102.2856 -92.2577,102.2856 -49.3101,0 -73.6885,-11.71 -99.799,-48.059 -15.6639,-22.1842 -19.7267,-25.2689 -19.7267,-14.7957 0,38.2015 -27.8503,62.8547 -71.9481,62.8547 -20.8854,0 -30.1683,-3.7017 -45.2577,-17.8658 z"
       id="path3416"
       inkscape:connector-curvature="0"
       style="fill:#ffffff" />
    <path
       d="m 2352.5944,4572.9717 c -30.7609,-20.9835 -34.7125,-61.1419 -18.018,-169.0327 22.4108,-140.8641 74.6991,-287.7164 139.7327,-390.2101 31.1948,-50.3549 43.9388,-58.7489 80.8489,-55.1491 25.9213,2.4006 28.123,4.2033 46.5761,31.7752 50.972,76.7153 100.6234,210.9859 132.2569,355.4373 24.612,113.8905 25.9308,184.6192 3.518,215.1874 -19.771,26.9735 -70.3026,23.3829 -84.3634,-5.99 -3.0767,-7.1898 -13.1822,-60.546 -21.969,-118.081 -20.6524,-133.0702 -36.911,-200.2033 -61.9564,-260.739 -11.4252,-26.3833 -21.972,-50.3555 -23.7294,-52.752 -3.9539,-6.5934 -32.9549,50.3508 -51.8477,101.2936 -19.334,52.7549 -29.8817,97.7086 -47.4564,207.396 -8.3499,53.9458 -17.5762,105.5029 -20.2129,115.0926 -8.3521,28.7743 -48.775,43.1545 -73.3794,25.7718 z"
       id="path3420"
       inkscape:connector-curvature="0"
       style="fill:#ffffff" />
    <path
       d="m 1516.232,4618.5826 c -104.6083,-41.5916 -166.5756,-148.6031 -174.0117,-300.2706 -8.923,-171.2358 64.9425,-296.6033 195.3231,-330.2371 47.5925,-12.8449 208.2137,-12.2321 242.9147,0 34.2068,12.8391 47.5922,33.6338 44.1202,69.7128 -1.4849,15.9001 -6.4438,31.803 -12.8868,39.7529 -9.9167,12.2322 -16.8563,12.8457 -123.4422,16.5078 -102.6174,3.0621 -114.5176,4.2896 -137.3204,17.1221 -41.1469,22.6302 -66.4287,61.16 -74.3616,111.9215 l -3.4703,22.6208 160.6202,1.8355 c 143.2719,1.8382 161.6136,3.0627 173.0166,12.8471 17.8445,14.6735 24.2924,35.4666 24.2924,80.1079 0,115.5833 -67.423,224.4497 -161.6133,260.5255 -45.605,17.1221 -107.0771,16.512 -153.1809,-2.4462 z m 121.4517,-132.7073 c 27.7639,-15.2845 38.1718,-26.9083 50.0705,-55.6498 17.8463,-43.4252 21.3164,-41.5887 -97.1662,-41.5887 -70.3953,0 -106.5848,2.4482 -106.5848,6.1219 0,12.8363 19.3339,51.9744 33.2145,68.4847 30.7361,36.0905 79.8154,45.264 120.466,22.6319 z"
       id="path3414-1"
       inkscape:connector-curvature="0"
       style="fill:#ffffff;stroke:none" />
    <path
       d="m 3018.3395,4579.8964 c -104.6083,-41.5916 -166.5756,-148.6031 -174.0117,-300.2706 -8.9229,-171.2355 64.9425,-296.603 195.3231,-330.2368 47.5925,-12.845 208.2137,-12.232 242.9147,0 34.2068,12.8391 47.5922,33.6338 44.1202,69.7127 -1.4849,15.9002 -6.4437,31.8032 -12.8868,39.7529 -9.9167,12.2323 -16.8563,12.8458 -123.4422,16.5079 -102.6173,3.0621 -114.5176,4.2896 -137.3204,17.1221 -41.1469,22.6302 -66.4286,61.1597 -74.3615,111.9212 l -3.4704,22.6208 160.6203,1.8355 c 143.2718,1.8382 161.6135,3.0627 173.0165,12.8471 17.8445,14.6736 24.2925,35.4666 24.2925,80.1079 0,115.5833 -67.4231,224.4496 -161.6134,260.5255 -45.6049,17.1221 -107.0771,16.512 -153.1809,-2.4462 z m 121.4517,-132.7074 c 27.7639,-15.2844 38.1718,-26.9082 50.0705,-55.6496 17.8463,-43.4253 21.3165,-41.5887 -97.1662,-41.5887 -70.3953,0 -106.5847,2.4481 -106.5847,6.1218 0,12.8364 19.3338,51.9744 33.2144,68.4847 30.7362,36.0905 79.8154,45.264 120.466,22.6318 z"
       id="path3414-1-3"
       inkscape:connector-curvature="0"
       style="fill:#ffffff;stroke:none" />
    <path
       d="m 894.3875,4602.6575 c -30.7609,-20.9835 -34.7125,-61.1419 -18.018,-169.0327 22.4108,-140.8641 74.6991,-287.7164 139.7326,-390.2101 31.1948,-50.3549 43.9388,-58.7489 80.8489,-55.1491 25.9213,2.4006 28.123,4.2033 46.5761,31.7752 50.9721,76.7153 100.6235,210.9859 132.257,355.4373 24.612,113.8905 25.9308,184.6192 3.518,215.1874 -19.771,26.9735 -70.3026,23.3829 -84.3634,-5.99 -3.0767,-7.1898 -13.1823,-60.546 -21.9691,-118.081 -20.6524,-133.0702 -36.911,-200.2033 -61.9564,-260.739 -11.4252,-26.3833 -21.972,-50.3555 -23.7294,-52.752 -3.9539,-6.5934 -32.9549,50.3508 -51.8477,101.2936 -19.334,52.7549 -29.8816,97.7086 -47.4563,207.396 -8.3499,53.9458 -17.5762,105.5029 -20.2129,115.0926 -8.3521,28.7743 -48.775,43.1545 -73.3794,25.7718 z"
       id="path3420-3"
       inkscape:connector-curvature="0"
       style="fill:#ffffff;stroke:none" />
    <path
       d="m 514.66774,4618.932 c -104.6083,-41.5916 -166.5755,-148.6031 -174.0117,-300.2706 -8.9229,-171.2355 64.9425,-296.603 195.3231,-330.2368 47.5925,-12.845 208.2137,-12.232 242.9147,0 34.2068,12.8391 47.5922,33.6338 44.1202,69.7127 -1.4849,15.9002 -6.4437,31.8032 -12.8868,39.7529 -9.9167,12.2323 -16.8563,12.8458 -123.4422,16.5079 -102.6173,3.0621 -114.5176,4.2896 -137.3204,17.1221 -41.1469,22.6302 -66.4286,61.1597 -74.3615,111.9212 l -3.4704,22.6208 160.6203,1.8356 c 143.2718,1.8382 161.6135,3.0626 173.0165,12.847 17.8445,14.6736 24.2925,35.4667 24.2925,80.108 0,115.5833 -67.4231,224.4496 -161.6134,260.5255 -45.6049,17.1221 -107.0771,16.512 -153.1809,-2.4462 z m 121.4517,-132.7074 c 27.7639,-15.2844 38.1718,-26.9082 50.0705,-55.6496 17.8463,-43.4253 21.3165,-41.5887 -97.1662,-41.5887 -70.3953,0 -106.5847,2.4481 -106.5847,6.1218 0,12.8364 19.3338,51.9744 33.2144,68.4847 30.7362,36.0905 79.8154,45.264 120.466,22.6318 z"
       id="path3414-1-3-4"
       inkscape:connector-curvature="0"
       style="fill:#ffffff;stroke:none" />
  </g>
</svg>
